<svg xmlns="http://www.w3.org/2000/svg" viewBox="0 0 725.19 328.9"><defs><style>.cls-1{fill:#00a388;}.cls-2{fill:#b5e4dc;}.cls-3{fill:#fff;}.cls-4{fill:#dadada;}</style></defs><title>Asset 6</title><g id="Layer_2" data-name="Layer 2"><g id="Layer_1-2" data-name="Layer 1"><path class="cls-1" d="M352.09,176.45v22.93h-76V176.45h27.07V48.2H276.06V25.27h76V48.2H324.86V176.45Z"/><path class="cls-1" d="M476,25.26V63.52H456.16V45.36s-14.57.27-22.69.11q-35.1-.94-36.06,26.36,2.38,20.9,22.93,26.83l16,5q45.14,12.1,43.23,52.48-5.73,40.85-48.25,43.21c-21.65.48-52.78.07-52.78.07v-39h19.83v21.1c.49.49,19.1.25,31,.1,16.24-2.38,25.48-13.13,27.71-25.95q1.42-24.45-28.66-32.29L410.79,117q-33.21-11.64-34.87-45.12,3.81-50.1,57.32-46.3Z"/><path class="cls-1" d="M501.77,199.38V25.26h22.46V177.44h59.23V166.22h22.92v11.22h.24v21.94Z"/><path class="cls-1" d="M679,75.9q48.48-2.39,46.09,44.9v78.58h-57.8q-38.68,0-38.69-39.77t37.74-39.76a152.46,152.46,0,0,1,37.49,4.77V108.15q0-14.34-14.33-15.05a85.34,85.34,0,0,0-26,1.91v6.92H645.55V81.4Q665.37,76.15,679,75.9Zm24.83,68.55q-21.74-7.89-39.64-6.21Q651,139.9,649.85,160.81t14.57,20.9h39.4Z"/><path class="cls-2" d="M52.51,110.17a67.31,67.31,0,1,0,67.3-67.3A67.31,67.31,0,0,0,52.51,110.17Z"/><path d="M171.6,112.23v-4.11h44.49v4.11Zm-9-22.44V85.68h5.58l18.4-26.92h25v4.11H188.52L170.13,89.79Z"/><path class="cls-3" d="M200.58,60.82a13.46,13.46,0,1,0,13.47-13.48,13.46,13.46,0,0,0-13.47,13.48v0Z"/><path d="M214,76.33a15.52,15.52,0,1,1,15.51-15.51A15.53,15.53,0,0,1,214,76.33Zm0-26.92a11.41,11.41,0,1,0,11.4,11.41A11.42,11.42,0,0,0,214,49.41Z"/><polygon points="186.62 161.58 168.68 134.66 162.63 134.66 162.63 130.55 170.99 130.55 188.49 157.47 211.61 157.47 211.61 161.58 186.62 161.58"/><path class="cls-3" d="M200.58,159.53a13.46,13.46,0,1,0,13.47-13.47,13.46,13.46,0,0,0-13.47,13.47v0Z"/><path d="M214,175a15.52,15.52,0,1,1,15.51-15.51A15.53,15.53,0,0,1,214,175Zm0-26.92a11.41,11.41,0,1,0,11.4,11.41A11.42,11.42,0,0,0,214,148.12Z"/><path class="cls-3" d="M205.06,110.17A13.47,13.47,0,1,0,218.54,96.7a13.46,13.46,0,0,0-13.48,13.47v0Z"/><path d="M218.52,125.69A15.52,15.52,0,1,1,234,110.17,15.53,15.53,0,0,1,218.52,125.69Zm0-26.92a11.41,11.41,0,1,0,11.41,11.4A11.41,11.41,0,0,0,218.52,98.77Z"/><polygon points="146.24 157.1 144.68 157.1 144.68 152.99 148.13 152.99 177.88 196.97 174.35 199.26 146.24 157.1"/><path class="cls-3" d="M164.68,199.91a13.46,13.46,0,1,0,13.47-13.47,13.46,13.46,0,0,0-13.47,13.47v0Z"/><path d="M178.14,215.43a15.52,15.52,0,1,1,15.52-15.52A15.53,15.53,0,0,1,178.14,215.43Zm0-26.93a11.41,11.41,0,1,0,11.41,11.41A11.42,11.42,0,0,0,178.14,188.5Z"/><polygon points="122.25 67.36 122.25 63.25 146.06 63.25 174.36 30.16 177.43 32.82 148.3 67.36 122.25 67.36"/><path class="cls-3" d="M164.68,29.41a13.46,13.46,0,1,0,13.47-13.47,13.46,13.46,0,0,0-13.47,13.47v0Z"/><path d="M178.14,44.92a15.52,15.52,0,1,1,15.52-15.51A15.53,15.53,0,0,1,178.14,44.92Zm0-26.92a11.41,11.41,0,1,0,11.41,11.41A11.42,11.42,0,0,0,178.14,18Z"/><path class="cls-3" d="M88.4,7A31,31,0,0,0,58.34,29.41c-18,.45-32.75,17.5-32.75,38.14A18.31,18.31,0,0,0,26,72.48C13,78.76,3.15,95.37,3.15,114.66A54.91,54.91,0,0,0,13,146.52a50.71,50.71,0,0,0-.89,14.35C14.37,182,31.42,196.77,49.82,195c4.93,13,18.39,22.89,34.1,22.89,19.74,0,35.89-15.26,35.89-33.65V38.38A31.5,31.5,0,0,0,88.4,7Z"/><path class="cls-4" d="M83.92,215.86c-14.16,0-27.41-8.88-32.23-21.59l-.54-1.43-1.53.14a26.49,26.49,0,0,1-2.82.14c-16.67,0-30.72-14-32.68-32.46A48,48,0,0,1,15,146.91l.17-.86-.51-.7a52.64,52.64,0,0,1-9.5-30.69c0-17.59,9-34.19,21.76-40.38l1.46-.7L28,72a16.52,16.52,0,0,1-.39-4.45c0-19.51,13.82-35.72,30.8-36.14l1.49,0,.39-1.43A29,29,0,0,1,88.4,9a29.45,29.45,0,0,1,29.41,29.41V184.21C117.81,201.66,102.61,215.86,83.92,215.86Z"/><path d="M83.92,220.35c-15.22,0-28.95-8.36-35-21.29l-.56-1.18-1.3,0h-.72c-18.26,0-34.2-16-36.28-36.35a46.23,46.23,0,0,1,.42-13.32l.17-.83-.49-.7A55.41,55.41,0,0,1,.67,115.11C.67,96.28,9.07,79.35,22.09,72l1-.58V68c0-20.77,13.9-38,32.33-40.19l1.19-.14.44-1.11C62.15,13.83,75,4.94,88.4,4.94a33.93,33.93,0,0,1,33.9,33.89V184.66C122.3,204.33,105.08,220.35,83.92,220.35ZM52.47,194.42c4.8,12.5,17.45,21,31.45,21,18.42,0,33.41-14,33.41-31.16V38.38A29,29,0,0,0,88.4,9.46,29.75,29.75,0,0,0,60.48,30.15L60,31.9H58.34c-16.71.47-30.27,16.46-30.27,35.65a14.49,14.49,0,0,0,.5,4.49l.21,1.45L27,74.23c-12.81,5.7-21.4,21.76-21.4,40,0,11.68,3.33,22.47,9.39,30.38l.79,1.06L15.55,147a43.3,43.3,0,0,0-.93,13.61c2.2,18,16.22,32,31.93,32a28.61,28.61,0,0,0,2.93-.16h2.16Z"/><path d="M86.52,179.89a29.35,29.35,0,0,1,27.26-18.11,30.13,30.13,0,0,1,4.12.28v4.87a37,37,0,0,0-4.58-.15c-9.32,0-17.58,5.66-22,14.9ZM57,118a18.54,18.54,0,0,1-8.46-1.88L51,111.92a14,14,0,0,0,5.69,1.19c6.08,0,12.94-3.86,18.83-10.59,6.65-7.9,16-12.78,24.52-12.78,6.35,0,12.2,2.72,16.92,7.87a42.14,42.14,0,0,1,4.08,5.78l-3.34,2.45a26.85,26.85,0,0,0-4.53-5.56,17.09,17.09,0,0,0-13.13-6c-7.12,0-14.9,4.12-20.81,11C72.66,113.53,64.77,118,57,118ZM86.4,72.22A33.94,33.94,0,0,1,54.51,38.38a37.08,37.08,0,0,1,.81-7.76L60,31.9a30.67,30.67,0,0,0-.49,6.48A29,29,0,0,0,86.4,67.24ZM114,54.78c-11.9,0-22.08-7-27-18.37l4.78-1.76c4,9.1,12.47,14.88,22,14.88a29.31,29.31,0,0,0,4-.37l.69,5.29A19.43,19.43,0,0,1,114,54.78Z"/><path d="M52.43,168.49c-8.63-2.72-16.81-9-17.88-17.92h5c1.12,6.12,7.3,10.66,13.85,12.85ZM48,79.26c1.08-9,9.33-15.25,18-18l2.48,3.63C61.9,67.36,54.2,73,53.05,79.26Z"/><path d="M49.54,200.3a37,37,0,0,1-4-15.64c0-18.63,14.64-34,34.07-35.7l1.82-.16v-2.28c0-8.92,10.35-18.76,18.44-20.25v5.1C94.2,133,86.4,140.72,86.4,146.52v7H83.92c-18.42,0-33.41,14-33.41,31.17a27.76,27.76,0,0,0,3.26,13.16Z"/><path d="M34.91,125.89a13.22,13.22,0,0,0,0-26.14v-5a18.19,18.19,0,0,1,0,36.16Z"/><rect x="121.81" y="85.25" width="9.46" height="4.97"/><rect x="123.81" y="87.25" width="5.46" height="0.97"/><rect x="144.25" y="85.25" width="4.97" height="4.97"/><rect x="144.25" y="130.12" width="4.97" height="4.97"/><rect x="121.81" y="130.12" width="12.13" height="4.97"/><rect x="123.81" y="132.12" width="8.13" height="0.97"/><rect x="121.81" y="152.55" width="13.13" height="4.97"/><rect x="123.81" y="154.55" width="9.13" height="0.97"/><rect x="121.81" y="107.69" width="18.43" height="4.97"/><rect x="123.81" y="109.69" width="14.43" height="0.97"/><rect x="153.22" y="107.69" width="4.97" height="4.97"/><rect x="117.33" width="4.97" height="224.83"/><path class="cls-1" d="M7.13,253.14v56H0v-56Z"/><path class="cls-1" d="M18.83,309.14h-7v-40h7l.08,4.8a12.33,12.33,0,0,1,1.4-1.68A12.85,12.85,0,0,1,25.39,269a11.21,11.21,0,0,1,3.77-.6,15.53,15.53,0,0,1,7.41,1.64,14.33,14.33,0,0,1,5,4.4,19,19,0,0,1,2.88,6.4,30.82,30.82,0,0,1,.92,7.56v20.72H38.29V288.26a29.15,29.15,0,0,0-.36-4.48,13,13,0,0,0-1.36-4.2,8.81,8.81,0,0,0-2.76-3.12,7.92,7.92,0,0,0-4.65-1.24,9.25,9.25,0,0,0-4.49,1,9.79,9.79,0,0,0-3.24,2.8,11.83,11.83,0,0,0-2,4.12,18.87,18.87,0,0,0-.64,5Z"/><path class="cls-1" d="M64,309.54q-11,0-11-13v-20.4H49.19v-7H53v-8h7.13v8h10.5v7H60.16v20.4a17.55,17.55,0,0,0,.12,2,7.3,7.3,0,0,0,.48,1.92,3.46,3.46,0,0,0,1.09,1.44,3.06,3.06,0,0,0,1.92.56,3.55,3.55,0,0,0,1.92-.56,9.55,9.55,0,0,0,2.08-2.08l5.37,3.76a17.18,17.18,0,0,1-3.84,4.12A8.43,8.43,0,0,1,64,309.54Z"/><path class="cls-1" d="M110.87,301.38a24.07,24.07,0,0,1-7.29,6,19.23,19.23,0,0,1-9.13,2.16A21,21,0,0,1,86.16,308a16.79,16.79,0,0,1-6-4.2,17.79,17.79,0,0,1-3.61-6.36,25.7,25.7,0,0,1-1.2-8,24.86,24.86,0,0,1,1.2-7.76,18.85,18.85,0,0,1,3.61-6.48,17.11,17.11,0,0,1,6-4.44,19.53,19.53,0,0,1,8.29-1.64,18,18,0,0,1,7.85,1.68,17.21,17.21,0,0,1,6,4.64,21.53,21.53,0,0,1,3.8,7,27.55,27.55,0,0,1,1.37,8.8H82.35a15.77,15.77,0,0,0,.88,4.84,10.52,10.52,0,0,0,6.09,6.32,13.52,13.52,0,0,0,5.13.92,12.4,12.4,0,0,0,5-1,16,16,0,0,0,3.76-2.28,18.35,18.35,0,0,0,3.13-3.28Zm-16.5-25.92a12,12,0,0,0-4.61.84,12.2,12.2,0,0,0-3.56,2.2,11,11,0,0,0-3.61,6.72h23.16a13.89,13.89,0,0,0-1.53-3.8,12.42,12.42,0,0,0-2.52-3.12,11.6,11.6,0,0,0-3.32-2.08A10.38,10.38,0,0,0,94.37,275.46Z"/><path class="cls-1" d="M124.53,298.06a5.07,5.07,0,0,0,2.52,2.92,6.23,6.23,0,0,0,2.57.64v7a15,15,0,0,1-5.77-1.32,12.07,12.07,0,0,1-3.89-2.88,11.7,11.7,0,0,1-2.2-3.84,13.06,13.06,0,0,1-.72-4.2V249h7.21v47.44A5.09,5.09,0,0,0,124.53,298.06Z"/><path class="cls-1" d="M141,298.06a5,5,0,0,0,2.53,2.92,6.14,6.14,0,0,0,2.56.64v7a15,15,0,0,1-5.77-1.32,11.92,11.92,0,0,1-3.88-2.88,11.55,11.55,0,0,1-2.21-3.84,13.06,13.06,0,0,1-.72-4.2V249h7.21v47.44A5.38,5.38,0,0,0,141,298.06Z"/><path class="cls-1" d="M158.06,256.82v6.8H151v-6.8ZM151,269.06h7.05v40H151Z"/><path class="cls-1" d="M184.17,304.66a20.44,20.44,0,0,1,8.74,4.24,9.8,9.8,0,0,1,3,7.6,10.33,10.33,0,0,1-1.36,5.28,11.79,11.79,0,0,1-3.73,3.88,18.49,18.49,0,0,1-5.57,2.4,27,27,0,0,1-6.89.84,24.35,24.35,0,0,1-6.44-.84,18.66,18.66,0,0,1-5.45-2.4,11.79,11.79,0,0,1-3.73-3.88,10.23,10.23,0,0,1-1.36-5.28,9.79,9.79,0,0,1,2.08-6.4,15.76,15.76,0,0,1,5.69-4.24,16.1,16.1,0,0,1-3-2.76,5,5,0,0,1-1.2-3.24,4.57,4.57,0,0,1,1.16-3,13.37,13.37,0,0,1,2.76-2.52,31,31,0,0,1-3.32-5.2,12.2,12.2,0,0,1-1.49-5.6,14.12,14.12,0,0,1,1.13-5.6,13.93,13.93,0,0,1,3.12-4.6,14.39,14.39,0,0,1,4.73-3.08,15.58,15.58,0,0,1,6-1.12h16.82v6.16h-5.53a15.26,15.26,0,0,1,2.89,8.24,16,16,0,0,1-1.61,7.12,11.92,11.92,0,0,1-4.72,5.12,14.75,14.75,0,0,1-4.89,1.8c-1.71.29-3.28.52-4.73.68H177a.66.66,0,0,0-.32.08c-.11,0-.17,0-.2,0a.21.21,0,0,1-.12,0,22.37,22.37,0,0,0-3.4.48c-.94.21-1.4.58-1.4,1.12,0,.85,1,1.58,3.08,2.2s4.74,1.29,8.05,2Zm-5.85,18.08a19.4,19.4,0,0,0,3.81-.36,9.69,9.69,0,0,0,3.12-1.16,6.47,6.47,0,0,0,2.09-2,5,5,0,0,0,.76-2.76,5.2,5.2,0,0,0-.76-2.76,6.7,6.7,0,0,0-2.09-2.12,9.6,9.6,0,0,0-3.12-1.32,15.66,15.66,0,0,0-3.81-.44,13.58,13.58,0,0,0-3.52.44,9.18,9.18,0,0,0-3,1.32,7.4,7.4,0,0,0-2.09,2.12,5,5,0,0,0-.8,2.76,4.79,4.79,0,0,0,.8,2.76,7.15,7.15,0,0,0,2.09,2,9.2,9.2,0,0,0,3,1.16A16.81,16.81,0,0,0,178.32,322.74Zm.73-47.36a8.06,8.06,0,0,0-3.37.68,8.1,8.1,0,0,0-4.29,4.4,8.09,8.09,0,0,0-.6,3.08,7.64,7.64,0,0,0,.6,3,8.21,8.21,0,0,0,4.29,4.36,8.21,8.21,0,0,0,3.37.68,7.64,7.64,0,0,0,3-.6,8.24,8.24,0,0,0,2.56-1.68,8.54,8.54,0,0,0,1.81-2.56,7.54,7.54,0,0,0,.68-3.16,7.31,7.31,0,0,0-.68-3.08,9.34,9.34,0,0,0-1.77-2.6,8.22,8.22,0,0,0-2.56-1.8A7,7,0,0,0,179.05,275.38Z"/><path class="cls-1" d="M235,301.38a24.07,24.07,0,0,1-7.29,6,19.2,19.2,0,0,1-9.13,2.16,21.07,21.07,0,0,1-8.29-1.52,16.79,16.79,0,0,1-6-4.2,17.62,17.62,0,0,1-3.6-6.36,25.41,25.41,0,0,1-1.21-8,24.57,24.57,0,0,1,1.21-7.76,18.67,18.67,0,0,1,3.6-6.48,17.11,17.11,0,0,1,6-4.44,19.56,19.56,0,0,1,8.29-1.64,18,18,0,0,1,7.85,1.68,17.21,17.21,0,0,1,6,4.64,21.74,21.74,0,0,1,3.81,7,27.83,27.83,0,0,1,1.36,8.8H206.52a15.47,15.47,0,0,0,.89,4.84,10.75,10.75,0,0,0,2.32,3.8,10.91,10.91,0,0,0,3.76,2.52,13.52,13.52,0,0,0,5.13.92,12.4,12.4,0,0,0,5-1,16,16,0,0,0,3.76-2.28,18.35,18.35,0,0,0,3.13-3.28Zm-16.5-25.92a12.06,12.06,0,0,0-4.61.84,12.2,12.2,0,0,0-3.56,2.2,11.14,11.14,0,0,0-3.61,6.72h23.16a13.89,13.89,0,0,0-1.53-3.8,12.42,12.42,0,0,0-2.52-3.12,11.6,11.6,0,0,0-3.32-2.08A10.38,10.38,0,0,0,218.54,275.46Z"/><path class="cls-1" d="M248.18,309.14h-7.05v-40h7.05l.08,4.8a13.12,13.12,0,0,1,1.4-1.68,13.57,13.57,0,0,1,2.17-1.8,12.82,12.82,0,0,1,2.92-1.44,11.17,11.17,0,0,1,3.77-.6,15.53,15.53,0,0,1,7.41,1.64,14.38,14.38,0,0,1,5,4.4,19,19,0,0,1,2.89,6.4,30.82,30.82,0,0,1,.92,7.56v20.72h-7.13V288.26a29.15,29.15,0,0,0-.36-4.48,13.29,13.29,0,0,0-1.36-4.2,8.74,8.74,0,0,0-2.77-3.12,7.86,7.86,0,0,0-4.64-1.24,9.22,9.22,0,0,0-4.49,1,9.79,9.79,0,0,0-3.24,2.8,11.85,11.85,0,0,0-2,4.12,18.87,18.87,0,0,0-.64,5Z"/><path class="cls-1" d="M293.36,309.54q-11,0-11-13v-20.4h-3.85v-7h3.85v-8h7.13v8H300v7H289.52v20.4a17.55,17.55,0,0,0,.12,2,7.3,7.3,0,0,0,.48,1.92,3.52,3.52,0,0,0,1.08,1.44,3.06,3.06,0,0,0,1.92.56,3.56,3.56,0,0,0,1.93-.56,9.77,9.77,0,0,0,2.08-2.08l5.37,3.76a17.22,17.22,0,0,1-3.85,4.12A8.4,8.4,0,0,1,293.36,309.54Z"/><path class="cls-1" d="M340,309.62a28.63,28.63,0,0,1-8.09-1.08,48.86,48.86,0,0,1-6.17-2.2,30.24,30.24,0,0,1-3.37-1.72c-1-.62-1.79-1.08-2.32-1.4l3-5.68,3.29,1.76v-.08a55.28,55.28,0,0,0,6.25,2.4,24.11,24.11,0,0,0,7.53,1.2,17.14,17.14,0,0,0,5-.68,14,14,0,0,0,3.77-1.72,8.25,8.25,0,0,0,2.56-6.32q0-3.69-3.76-6.24a26,26,0,0,0-4-2.28q-2.28-1.08-4.92-2.12-3-1.36-6-2.76a30.15,30.15,0,0,1-5.41-3.32q-5.54-4.56-5.53-10.72a11.39,11.39,0,0,1,1.36-5.68h-.08a15.71,15.71,0,0,1,3.69-4.56q4.8-3.84,12.34-3.84a31,31,0,0,1,7.05.76,43.2,43.2,0,0,1,5.44,1.56h-.08a21.56,21.56,0,0,1,3.05,1L351.28,262a55.15,55.15,0,0,0-5.52-1.72,26.18,26.18,0,0,0-6.65-.84,23.61,23.61,0,0,0-3.13.28,9.2,9.2,0,0,0-3.76,1.4,6.24,6.24,0,0,0-3.37,5.92,4,4,0,0,0,1,2.6,12.11,12.11,0,0,0,2.57,2.24,28.9,28.9,0,0,0,3.68,2.08c1.39.66,2.83,1.32,4.33,2q3,1.35,6.37,2.88a27.31,27.31,0,0,1,6.05,3.76q6.17,4.8,6.16,11.68a13.14,13.14,0,0,1-1.68,6.52,15.68,15.68,0,0,1-4.56,5.08,25.86,25.86,0,0,1-5.93,2.64A25.39,25.39,0,0,1,340,309.62Z"/><path class="cls-1" d="M400.39,269.14l-32.28,59.68h-8.18l16.43-30.24-17.79-29.44H367l13.38,22.08a22,22,0,0,0,1.37-2.4q.87-1.6,1.68-3.24a30.71,30.71,0,0,1,1.6-2.92v.08c1.17-2,2.34-4.18,3.48-6.44s2.26-4.42,3.33-6.44l.4-.72Z"/><path class="cls-1" d="M409.12,279.54a3,3,0,0,0,.68,1.84,8.09,8.09,0,0,0,1.81,1.64,24.48,24.48,0,0,0,2.64,1.52c1,.5,2.06,1,3.12,1.48,1.45.64,2.93,1.34,4.45,2.12a25.23,25.23,0,0,1,4.13,2.6,12.43,12.43,0,0,1,3,3.36,8.35,8.35,0,0,1,1.16,4.4,9.92,9.92,0,0,1-3.76,8q-3.77,3.12-10.42,3.12a24.38,24.38,0,0,1-6.13-.72,29.16,29.16,0,0,1-4.76-1.64,19.53,19.53,0,0,1-3.05-1.68,6.2,6.2,0,0,1-1-.84l2.81-5.36c.64.32,1.44.69,2.4,1.12a32.44,32.44,0,0,0,3.08,1.16c1.1.34,2.22.65,3.37.92a15,15,0,0,0,3.32.4,8.47,8.47,0,0,0,4.57-1.12,3.73,3.73,0,0,0,1.76-3.36,3.62,3.62,0,0,0-2.16-3.16,56,56,0,0,0-5.21-2.6l-1-.56v.08c-1.39-.64-2.76-1.31-4.13-2a18.43,18.43,0,0,1-3.72-2.52,11.75,11.75,0,0,1-2.72-3.52,10.84,10.84,0,0,1-1-5,9.57,9.57,0,0,1,3.41-7.64q3.41-2.93,9.57-2.92a20.44,20.44,0,0,1,4.81.52,26.39,26.39,0,0,1,3.76,1.16,24.5,24.5,0,0,1,3.37,1.6l-3,5.6a32.39,32.39,0,0,0-3.92-1.56,15.69,15.69,0,0,0-5.05-.84,7,7,0,0,0-4.44,1.28A3.82,3.82,0,0,0,409.12,279.54Z"/><path class="cls-1" d="M446.86,309.54q-11,0-11-13v-20.4H432v-7h3.85v-8H443v8H453.5v7H443v20.4a17.55,17.55,0,0,0,.12,2,7.3,7.3,0,0,0,.48,1.92,3.52,3.52,0,0,0,1.08,1.44,3.06,3.06,0,0,0,1.92.56,3.56,3.56,0,0,0,1.93-.56,9.77,9.77,0,0,0,2.08-2.08l5.37,3.76a17.22,17.22,0,0,1-3.85,4.12A8.4,8.4,0,0,1,446.86,309.54Z"/><path class="cls-1" d="M493.72,301.38a24.31,24.31,0,0,1-7.29,6,19.23,19.23,0,0,1-9.13,2.16A21,21,0,0,1,469,308a16.79,16.79,0,0,1-6-4.2,17.64,17.64,0,0,1-3.61-6.36,25.7,25.7,0,0,1-1.2-8,24.86,24.86,0,0,1,1.2-7.76,18.69,18.69,0,0,1,3.61-6.48,17.11,17.11,0,0,1,6-4.44,19.53,19.53,0,0,1,8.29-1.64,18,18,0,0,1,7.85,1.68,17.21,17.21,0,0,1,6,4.64,21.91,21.91,0,0,1,3.8,7,27.55,27.55,0,0,1,1.36,8.8H465.2a15.47,15.47,0,0,0,.88,4.84,10.45,10.45,0,0,0,6.09,6.32,13.45,13.45,0,0,0,5.13.92,12.32,12.32,0,0,0,5-1,16.11,16.11,0,0,0,3.77-2.28,18.29,18.29,0,0,0,3.12-3.28Zm-16.5-25.92a12,12,0,0,0-4.61.84,12.2,12.2,0,0,0-3.56,2.2,11,11,0,0,0-3.61,6.72h23.15a14.19,14.19,0,0,0-1.52-3.8,12.64,12.64,0,0,0-2.52-3.12,11.52,11.52,0,0,0-3.33-2.08A10.33,10.33,0,0,0,477.22,275.46Z"/><path class="cls-1" d="M543.31,268.42a15.53,15.53,0,0,1,7.41,1.64,14.42,14.42,0,0,1,5,4.4,18.55,18.55,0,0,1,2.84,6.4,31.81,31.81,0,0,1,.88,7.56v20.72h-7.13V288.26a29.15,29.15,0,0,0-.36-4.48,13.78,13.78,0,0,0-1.32-4.2,8.36,8.36,0,0,0-2.73-3.12,7.86,7.86,0,0,0-4.64-1.24,9.34,9.34,0,0,0-4.29,1,9.71,9.71,0,0,0-3.2,2.6,11.85,11.85,0,0,0-2,3.88,17,17,0,0,0-.81,4.72v21.76h-7.21V288.26a29.15,29.15,0,0,0-.36-4.48,13,13,0,0,0-1.36-4.2,8.81,8.81,0,0,0-2.76-3.12,7.92,7.92,0,0,0-4.65-1.24,9.25,9.25,0,0,0-4.49,1,9.79,9.79,0,0,0-3.24,2.8,12.45,12.45,0,0,0-2,4.12,17.71,17.71,0,0,0-.68,5v21h-7.05v-40h7.05l.08,4.88a12.33,12.33,0,0,1,1.4-1.68,12.88,12.88,0,0,1,2.24-1.84,13.39,13.39,0,0,1,3-1.48,10.88,10.88,0,0,1,3.68-.6,13.28,13.28,0,0,1,6.37,1.44,20.49,20.49,0,0,1,4.45,3.12,20.1,20.1,0,0,1,3.44,4.56c.27-.59.71-1.4,1.32-2.44a15,15,0,0,1,6.09-5.6A11,11,0,0,1,543.31,268.42Z"/><path class="cls-1" d="M569.34,279.54a3,3,0,0,0,.69,1.84,7.81,7.81,0,0,0,1.8,1.64,24.48,24.48,0,0,0,2.64,1.52c1,.5,2.06,1,3.13,1.48,1.44.64,2.92,1.34,4.44,2.12a25.23,25.23,0,0,1,4.13,2.6,12.26,12.26,0,0,1,3,3.36,8.26,8.26,0,0,1,1.16,4.4,9.92,9.92,0,0,1-3.76,8q-3.77,3.12-10.42,3.12a24.24,24.24,0,0,1-6.12-.72,29,29,0,0,1-4.77-1.64,19.53,19.53,0,0,1-3-1.68,6.2,6.2,0,0,1-1-.84l2.81-5.36c.64.32,1.44.69,2.4,1.12a32.44,32.44,0,0,0,3.08,1.16c1.1.34,2.22.65,3.37.92a15.1,15.1,0,0,0,3.32.4,8.47,8.47,0,0,0,4.57-1.12,3.73,3.73,0,0,0,1.76-3.36,3.62,3.62,0,0,0-2.16-3.16,56,56,0,0,0-5.21-2.6l-1-.56v.08c-1.39-.64-2.76-1.31-4.13-2a18.43,18.43,0,0,1-3.72-2.52,11.75,11.75,0,0,1-2.72-3.52,10.84,10.84,0,0,1-1-5,9.57,9.57,0,0,1,3.41-7.64q3.4-2.93,9.57-2.92a20.38,20.38,0,0,1,4.81.52,26,26,0,0,1,3.76,1.16,24.5,24.5,0,0,1,3.37,1.6l-3,5.6a33.33,33.33,0,0,0-3.93-1.56,15.69,15.69,0,0,0-5.05-.84,7,7,0,0,0-4.44,1.28A3.82,3.82,0,0,0,569.34,279.54Z"/><path class="cls-1" d="M643.53,302.1v7H609.64v-56h7.05v49Z"/><path class="cls-1" d="M681.5,301.38a2.58,2.58,0,0,0,1.44,1.32c.64.24,1,.3,1,.2,0,.26,0,.73-.08,1.4s-.1,1.37-.16,2.12-.1,1.76-.16,2.72a10,10,0,0,1-5.93-1.52,7.49,7.49,0,0,1-2.72-4.88A14.67,14.67,0,0,1,673,305a13.46,13.46,0,0,1-2.85,2.12,16.52,16.52,0,0,1-3.92,1.56,20,20,0,0,1-5.13.6,23.85,23.85,0,0,1-5.53-.64,15.18,15.18,0,0,1-4.72-2,10.24,10.24,0,0,1-3.33-3.56,10.5,10.5,0,0,1-1.24-5.24,13.47,13.47,0,0,1,1.76-7.08,14.16,14.16,0,0,1,4.61-4.72,20.07,20.07,0,0,1,6.33-2.6,30.47,30.47,0,0,1,6.93-.8,44,44,0,0,1,8.25.8,9.43,9.43,0,0,0-1-3.68,7.34,7.34,0,0,0-2.08-2.48,8.61,8.61,0,0,0-2.85-1.4,11.63,11.63,0,0,0-3.24-.44,14.54,14.54,0,0,0-6,1.4,20,20,0,0,0-5.93,4.2c-.32-.48-.67-.95-1-1.4s-.7-.87-1-1.24-.59-.88-1-1.36a8.43,8.43,0,0,1-1-1.52,27.34,27.34,0,0,1,8-4.88,22.38,22.38,0,0,1,8.09-1.6,21.24,21.24,0,0,1,7.49,1.16,13,13,0,0,1,5,3.2,11.81,11.81,0,0,1,2.77,4.88,22,22,0,0,1,.84,6.28c0,1.7-.07,3.42-.2,5.16s-.2,3.58-.2,5.56c0,1.49,0,2.78.12,3.88a7.81,7.81,0,0,0,.44,2.36Zm-20.43,1.76a13.47,13.47,0,0,0,6.49-1.4,12.81,12.81,0,0,0,4.05-3.32,11.7,11.7,0,0,0,2-4,13.52,13.52,0,0,0,.56-3.4v-1.44c-1-.16-2.08-.31-3.36-.44a34.15,34.15,0,0,0-3.69-.2,28.5,28.5,0,0,0-4.73.4,16.72,16.72,0,0,0-4.4,1.32,9.06,9.06,0,0,0-3.29,2.48,6.06,6.06,0,0,0-1.28,4,8.11,8.11,0,0,0,.24,1.76,4.88,4.88,0,0,0,1,2,6,6,0,0,0,2.33,1.6A10.59,10.59,0,0,0,661.07,303.14Z"/><path class="cls-1" d="M706.25,269.22a17.8,17.8,0,0,1,7.78,1.64,18.62,18.62,0,0,1,5.92,4.4,19.2,19.2,0,0,1,3.81,6.4,22,22,0,0,1,1.32,7.56,23.15,23.15,0,0,1-1.32,7.8,20,20,0,0,1-3.81,6.56A18.67,18.67,0,0,1,714,308.1a17.53,17.53,0,0,1-7.78,1.68,13.5,13.5,0,0,1-5.2-1,23.28,23.28,0,0,1-4.25-2.28,22.57,22.57,0,0,1-3.84-3.36v6.08h-7.21V249.54H693v25.52a11.46,11.46,0,0,1,1.48-1.72,12.18,12.18,0,0,1,2.6-1.92,16.59,16.59,0,0,1,3.89-1.56A19.63,19.63,0,0,1,706.25,269.22Zm0,33.92a9.86,9.86,0,0,0,5.25-1.36,12.38,12.38,0,0,0,3.65-3.4,14.31,14.31,0,0,0,2.12-4.52,18.34,18.34,0,0,0,.68-4.8,14.24,14.24,0,0,0-.76-4.48,14.62,14.62,0,0,0-2.2-4.24,11.52,11.52,0,0,0-3.65-3.16,10.15,10.15,0,0,0-5.09-1.24,14.94,14.94,0,0,0-5,.84,12.48,12.48,0,0,0-4.25,2.48,12,12,0,0,0-3,4.12,13.8,13.8,0,0,0-1.12,5.76,15.11,15.11,0,0,0,1.16,6.16,12.81,12.81,0,0,0,3,4.36,13.13,13.13,0,0,0,4.25,2.6A13.9,13.9,0,0,0,706.25,303.14Z"/></g></g></svg>